. 
  
http://www.torrenting.com/        :     Greatest Movie Tracker on The Net!!!
 
http://www.Torrenting.com          :     Once & For all ;)


               www . Torrenting . Com 

(((((((((((((= Enjoy No RAR releases =))))))))))))))))))))


...................................NFO:....................................

.                                                                                                     
       
     
     
       
       
     
     
                                         
                                         
                EXVID                    
                                         
         
                                         
         Filled the Archives             
                                         
         
                                         
                With:                    
                                         
         
                                         
                                    
     E240                           
                                    
     SP               (C) 2009      
                                         
     
     
     
                                                                                  
                                                                                   
                   Gotti.1996.PROPER.DVDRip.XviD-EXViD                              
                                                                                   
                                                                                  
     
                                                                                               
EXViD aims to iNTERNAL those releases which have been lost in the archives.
EXViD aims to PRE non-internal releases which have poor sources and are likely skipped by others.
 
http://www.imdb.com/title/tt0116441/
Subtitles: Dutch
Date: 2011.09

Director: Robert Harmon

Genres: Biography | Crime | Drama

Plot:
John Gotti, the head of a small New York mafia crew breaks a few of the old family rules. He
rises to become the head of the Gambino family and the most well-known mafia boss in America.
He is known as the Dapper Don for his expensive taste in suits, and the Teflon Don because
none of the FBI charges against him will stick. Life is good, but suspicion creeps in, and
greed, rule-breaking and his high public profile all threaten to topple him.

Cast:
Armand Assante 	 ... 	 John Gotti
William Forsythe 	 ... 	 Sammy Gravano
Richard C. Sarafian 	 ... 	 Paul Castellano
Frank Vincent 	 ... 	 Robert DiBernardo
Anthony Quinn 	 ... 	 Neil Dellacroce
Dominic Chianese 	 ... 	 Joe Armone
Robert Miranda 	 ... 	 Frank DeCicco
Scott Cohen 	 ... 	 Gene Gotti
Raymond Serra 	 ... 	 Frank LoCascio
Vincent Pastore 	 ... 	 Angelo Ruggiero
Marc Lawrence 	 ... 	 Carlo Gambino
Tony Sirico 	 ... 	 Joe Dimiglia
Alberta Watson 	 ... 	 Victoria Gotti
Al Waxman 	 ... 	 Bruce Cutler
Yank Azman 	 ... 	 Judge Nickerson

Stats:
Format                           : AVI
Format/Info                      : Audio Video Interleave
File size                        : 701 MiB
Duration                         : 1h 57mn
Overall bit rate                 : 836 Kbps
Writing application              : Nandub v1.0rc2
Writing library                  : Nandub build 1852/release

Video
ID                               : 0
Format                           : MPEG-4 Visual
Format profile                   : Advanced Simple@L5
Format settings, BVOP            : 2
Format settings, QPel            : No
Format settings, GMC             : No warppoints
Format settings, Matrix          : Default (H.263)
Codec ID                         : XVID
Codec ID/Hint                    : XviD
Duration                         : 1h 57mn
Bit rate                         : 702 Kbps
Width                            : 528 pixels
Height                           : 400 pixels
Display aspect ratio             : 4:3
Frame rate                       : 25.000 fps
Color space                      : YUV
Chroma subsampling               : 4:2:0
Bit depth                        : 8 bits
Scan type                        : Progressive
Compression mode                 : Lossy
Bits/(Pixel*Frame)               : 0.133
Stream size                      : 588 MiB (84%)
Writing library                  : XviD 64

Audio
ID                               : 1
Format                           : MPEG Audio
Format version                   : Version 1
Format profile                   : Layer 3
Mode                             : Joint stereo
Mode extension                   : MS Stereo
Codec ID                         : 55
Codec ID/Hint                    : MP3
Duration                         : 1h 57mn
Bit rate mode                    : Variable
Bit rate                         : 121 Kbps
Nominal bit rate                 : 128 Kbps
Channel(s)                       : 2 channels
Sampling rate                    : 48.0 KHz
Compression mode                 : Lossy
Stream size                      : 101 MiB (14%)
Alignment                        : Aligned on interleaves
Interleave, duration             : 24 ms (0.60 video frame)
Interleave, preload duration     : 498 ms
Writing library                  : LAME3.98r
Encoding settings                : -m j -V 4 -q 3 -lowpass 17 --abr 128




Release notes:
The 2001 XV rip has frameskips because of bad.ivtc (1 in 5 decimation was used instead of
the 1 in 6 that was appropriate for that DVD). Our rip is from the PAL DVD. Sample included.

enjoy!

Looking for:
75TB+ Archives
DUTCH/FLEMiSH Archives
                                                                                                    
Greets: CRBS EPiSODE FiCO FLS iLS KLASSiGER LiPSYNC MADE NODLABS RUNNER SPRiNTER      
   

                                                                    ASCII DONE BY XX^NFO 2oo9